<svg clip-rule="evenodd" fill-rule="evenodd" height="512" image-rendering="optimizeQuality" shape-rendering="geometricPrecision" text-rendering="geometricPrecision" width="512" xmlns="http://www.w3.org/2000/svg"><path d="m184.5-.5h11c11.602 7.47576 23.269 14.9758 35 22.5 6.949 7.1005 7.782 14.9338 2.5 23.5-11.333 16.6667-22.667 33.3333-34 50-20.578-10.3723-41.078-20.8723-61.5-31.5 13.205-18.9083 26.039-38.0749 38.5-57.5 2.464-2.98105 5.297-5.31438 8.5-7z" opacity=".967"/><path d="m269.5 51.5c4.241.348 8.241 1.5147 12 3.5 10.667 7 21.333 14 32 21 5.763 6.8101 6.263 13.9768 1.5 21.5-9.333 14-18.667 28-28 42-20.578-10.372-41.078-20.872-61.5-31.5 11.291-16.7475 22.457-33.5808 33.5-50.5 3.069-2.9455 6.569-4.9455 10.5-6z" opacity=".967"/><path d="m378.5 511.5c-79.333 0-158.667 0-238 0-8.238-4.146-11.405-10.813-9.5-20l27-108c1.111-5.111.111-9.778-3-14-38.105-50.104-75.4385-100.771-112-152-1.2246-5.768-.2246-11.101 3-16 22.6667-34 45.3333-68 68-102 6.606-6.4772 14.106-7.6439 22.5-3.5 39.271 19.636 78.604 39.302 118 59 7.608 4.386 10.442 10.886 8.5 19.5-3.75 6.502-7.75 12.835-12 19-1.731 2.117-3.898 3.617-6.5 4.5-34 .333-68 .667-102 1-12.367 4.1-15.534 11.933-9.5 23.5 2.258 1.93 4.758 3.43 7.5 4.5 23.007.167 46.007.667 69 1.5 23.695 48.223 48.028 96.057 73 143.5 9.511 5.887 17.011 4.054 22.5-5.5 1.318-2.906 1.652-5.906 1-9-21.5-43-43-86-64.5-129 5.531-1.512 10.864-1.012 16 1.5 46.5 21.055 93.167 41.722 140 62 17.664 4.627 32.831.461 45.5-12.5.667 18.333.667 36.667 0 55-4.741 32.403-21.574 56.236-50.5 71.5-1.602 1.935-2.769 4.101-3.5 6.5-.333 29-.667 58-1 87-1.194 5.681-4.36 9.681-9.5 12z" opacity=".988"/><path d="m350.5 104.5c3.91-.237 7.577.596 11 2.5 8.164 5.583 16.497 10.916 25 16 7.311 6.31 8.811 13.81 4.5 22.5-16.915 24.828-33.581 49.828-50 75-4.964 6.527-11.464 8.693-19.5 6.5-10.452-4.392-20.785-9.059-31-14-5.553-4.618-7.386-10.451-5.5-17.5 18.706-30.243 38.54-59.743 59.5-88.5 2.111-.845 4.111-1.678 6-2.5z" opacity=".97"/><path d="m424.5 153.5c3.773-.237 7.44.263 11 1.5 9.333 6 18.667 12 28 18 4.589 4.966 6.089 10.8 4.5 17.5-15.388 24.947-31.888 49.114-49.5 72.5-4.576 1.476-9.243 1.81-14 1-10.452-4.392-20.785-9.059-31-14-5.553-4.618-7.386-10.451-5.5-17.5 15.243-24.249 30.909-48.249 47-72 2.529-3.385 5.696-5.718 9.5-7z" opacity=".969"/></svg>