<?xml version="1.0" encoding="UTF-8"?>
<!DOCTYPE svg PUBLIC "-//W3C//DTD SVG 1.1//EN" "http://www.w3.org/Graphics/SVG/1.1/DTD/svg11.dtd">
<svg xmlns="http://www.w3.org/2000/svg" version="1.1" width="512px" height="512px" style="shape-rendering:geometricPrecision; text-rendering:geometricPrecision; image-rendering:optimizeQuality; fill-rule:evenodd; clip-rule:evenodd" xmlns:xlink="http://www.w3.org/1999/xlink">
<g><path style="opacity:0.967" fill="#000000" d="M 184.5,-0.5 C 188.167,-0.5 191.833,-0.5 195.5,-0.5C 207.102,6.97576 218.769,14.4758 230.5,22C 237.449,29.1005 238.282,36.9338 233,45.5C 221.667,62.1667 210.333,78.8333 199,95.5C 178.422,85.1277 157.922,74.6277 137.5,64C 150.705,45.0917 163.539,25.9251 176,6.5C 178.464,3.51895 181.297,1.18562 184.5,-0.5 Z"/></g>
<g><path style="opacity:0.967" fill="#000000" d="M 269.5,51.5 C 273.741,51.848 277.741,53.0147 281.5,55C 292.167,62 302.833,69 313.5,76C 319.263,82.8101 319.763,89.9768 315,97.5C 305.667,111.5 296.333,125.5 287,139.5C 266.422,129.128 245.922,118.628 225.5,108C 236.791,91.2525 247.957,74.4192 259,57.5C 262.069,54.5545 265.569,52.5545 269.5,51.5 Z"/></g>
<g><path style="opacity:0.988" fill="#000000" d="M 378.5,511.5 C 299.167,511.5 219.833,511.5 140.5,511.5C 132.262,507.354 129.095,500.687 131,491.5C 140,455.5 149,419.5 158,383.5C 159.111,378.389 158.111,373.722 155,369.5C 116.895,319.396 79.5615,268.729 43,217.5C 41.7754,211.732 42.7754,206.399 46,201.5C 68.6667,167.5 91.3333,133.5 114,99.5C 120.606,93.0228 128.106,91.8561 136.5,96C 175.771,115.636 215.104,135.302 254.5,155C 262.108,159.386 264.942,165.886 263,174.5C 259.25,181.002 255.25,187.335 251,193.5C 249.269,195.617 247.102,197.117 244.5,198C 210.5,198.333 176.5,198.667 142.5,199C 130.133,203.1 126.966,210.933 133,222.5C 135.258,224.43 137.758,225.93 140.5,227C 163.507,227.167 186.507,227.667 209.5,228.5C 233.195,276.723 257.528,324.557 282.5,372C 292.011,377.887 299.511,376.054 305,366.5C 306.318,363.594 306.652,360.594 306,357.5C 284.5,314.5 263,271.5 241.5,228.5C 247.031,226.988 252.364,227.488 257.5,230C 304,251.055 350.667,271.722 397.5,292C 415.164,296.627 430.331,292.461 443,279.5C 443.667,297.833 443.667,316.167 443,334.5C 438.259,366.903 421.426,390.736 392.5,406C 390.898,407.935 389.731,410.101 389,412.5C 388.667,441.5 388.333,470.5 388,499.5C 386.806,505.181 383.64,509.181 378.5,511.5 Z"/></g>
<g><path style="opacity:0.97" fill="#000000" d="M 350.5,104.5 C 354.41,104.263 358.077,105.096 361.5,107C 369.664,112.583 377.997,117.916 386.5,123C 393.811,129.31 395.311,136.81 391,145.5C 374.085,170.328 357.419,195.328 341,220.5C 336.036,227.027 329.536,229.193 321.5,227C 311.048,222.608 300.715,217.941 290.5,213C 284.947,208.382 283.114,202.549 285,195.5C 303.706,165.257 323.54,135.757 344.5,107C 346.611,106.155 348.611,105.322 350.5,104.5 Z"/></g>
<g><path style="opacity:0.969" fill="#000000" d="M 424.5,153.5 C 428.273,153.263 431.94,153.763 435.5,155C 444.833,161 454.167,167 463.5,173C 468.089,177.966 469.589,183.8 468,190.5C 452.612,215.447 436.112,239.614 418.5,263C 413.924,264.476 409.257,264.81 404.5,264C 394.048,259.608 383.715,254.941 373.5,250C 367.947,245.382 366.114,239.549 368,232.5C 383.243,208.251 398.909,184.251 415,160.5C 417.529,157.115 420.696,154.782 424.5,153.5 Z"/></g>
</svg>
